<?xml version="1.0" encoding="utf-8"?>
<svg width="381px" height="527px" viewBox="18 101 381 180" fill="none" xmlns="http://www.w3.org/2000/svg">
  <g filter="url(#filter0_d_9_376)">
    <rect x="20" y="176" width="377" height="95" rx="5" fill="white"/>
    <rect x="20.5" y="176.5" width="376" height="94" rx="4.5" stroke="#E0E0E0"/>
  </g>
  <path d="M114.651 205L115.675 202.116H119.791L120.815 205H122.108L118.369 194.818H117.097L113.358 205H114.651ZM116.062 201.023L117.693 196.429H117.773L119.403 201.023H116.062ZM133.717 197.364H132.444L130.336 203.449H130.256L128.148 197.364H126.876L129.7 205H130.893L133.717 197.364ZM135.265 205H136.439V197.364H135.265V205ZM135.862 196.091C136.319 196.091 136.697 195.733 136.697 195.295C136.697 194.858 136.319 194.5 135.862 194.5C135.404 194.5 135.027 194.858 135.027 195.295C135.027 195.733 135.404 196.091 135.862 196.091ZM141.471 205.159C142.943 205.159 143.44 204.244 143.698 203.827H143.838V205H144.971V194.818H143.798V198.577H143.698C143.44 198.179 142.982 197.264 141.491 197.264C139.562 197.264 138.23 198.795 138.23 201.202C138.23 203.628 139.562 205.159 141.471 205.159ZM141.63 204.105C140.159 204.105 139.403 202.812 139.403 201.182C139.403 199.571 140.139 198.318 141.63 198.318C143.062 198.318 143.818 199.472 143.818 201.182C143.818 202.912 143.042 204.105 141.63 204.105ZM149.53 205.179C150.862 205.179 151.558 204.463 151.797 203.966H151.857V205H153.03V199.969C153.03 197.543 151.181 197.264 150.206 197.264C149.053 197.264 147.74 197.662 147.144 199.054L148.257 199.452C148.516 198.895 149.127 198.298 150.246 198.298C151.325 198.298 151.857 198.87 151.857 199.849V199.889C151.857 200.456 151.28 200.406 149.888 200.585C148.471 200.769 146.925 201.082 146.925 202.832C146.925 204.324 148.078 205.179 149.53 205.179ZM149.709 204.125C148.774 204.125 148.098 203.707 148.098 202.892C148.098 201.997 148.914 201.719 149.828 201.599C150.325 201.54 151.658 201.401 151.857 201.162V202.236C151.857 203.19 151.101 204.125 149.709 204.125ZM162.311 205.159C163.862 205.159 164.995 204.384 165.353 203.23L164.22 202.912C163.922 203.707 163.23 204.105 162.311 204.105C160.934 204.105 159.984 203.215 159.929 201.58H165.473V201.082C165.473 198.239 163.782 197.264 162.191 197.264C160.123 197.264 158.751 198.895 158.751 201.241C158.751 203.588 160.103 205.159 162.311 205.159ZM159.929 200.565C160.009 199.377 160.849 198.318 162.191 198.318C163.464 198.318 164.279 199.273 164.279 200.565H159.929ZM161.595 196.33H162.629L164.18 194.023H162.808L161.595 196.33ZM174.297 205.159C175.988 205.159 177.101 204.125 177.3 202.773H176.127C175.908 203.608 175.212 204.105 174.297 204.105C172.905 204.105 172.01 202.952 172.01 201.182C172.01 199.452 172.925 198.318 174.297 198.318C175.331 198.318 175.948 198.955 176.127 199.651H177.3C177.101 198.219 175.888 197.264 174.277 197.264C172.209 197.264 170.837 198.895 170.837 201.222C170.837 203.509 172.15 205.159 174.297 205.159ZM182.118 205.159C184.186 205.159 185.578 203.588 185.578 201.222C185.578 198.835 184.186 197.264 182.118 197.264C180.049 197.264 178.657 198.835 178.657 201.222C178.657 203.588 180.049 205.159 182.118 205.159ZM182.118 204.105C180.547 204.105 179.831 202.753 179.831 201.222C179.831 199.69 180.547 198.318 182.118 198.318C183.689 198.318 184.404 199.69 184.404 201.222C184.404 202.753 183.689 204.105 182.118 204.105ZM187.369 205H188.542V200.227C188.542 199.109 189.357 198.318 190.272 198.318C191.162 198.318 191.784 198.9 191.784 199.77V205H192.977V200.028C192.977 199.044 193.593 198.318 194.667 198.318C195.502 198.318 196.218 198.761 196.218 199.889V205H197.392V199.889C197.392 198.094 196.427 197.264 195.065 197.264C193.971 197.264 193.171 197.766 192.778 198.557H192.698C192.32 197.741 191.654 197.264 190.65 197.264C189.656 197.264 188.92 197.741 188.602 198.557H188.502V197.364H187.369V205ZM202.639 205.159C204.707 205.159 206.099 203.588 206.099 201.222C206.099 198.835 204.707 197.264 202.639 197.264C200.571 197.264 199.179 198.835 199.179 201.222C199.179 203.588 200.571 205.159 202.639 205.159ZM202.639 204.105C201.068 204.105 200.352 202.753 200.352 201.222C200.352 199.69 201.068 198.318 202.639 198.318C204.21 198.318 204.926 199.69 204.926 201.222C204.926 202.753 204.21 204.105 202.639 204.105ZM216.64 201.878C216.64 203.31 215.547 203.966 214.672 203.966C213.697 203.966 213.001 203.25 213.001 202.136V197.364H211.828V202.216C211.828 204.165 212.862 205.099 214.294 205.099C215.447 205.099 216.203 204.483 216.561 203.707H216.64V205H217.814V197.364H216.64V201.878ZM219.963 205H221.136V200.227C221.136 199.109 221.951 198.318 222.866 198.318C223.756 198.318 224.377 198.9 224.377 199.77V205H225.57V200.028C225.57 199.044 226.187 198.318 227.261 198.318C228.096 198.318 228.812 198.761 228.812 199.889V205H229.985V199.889C229.985 198.094 229.021 197.264 227.659 197.264C226.565 197.264 225.764 197.766 225.372 198.557H225.292C224.914 197.741 224.248 197.264 223.244 197.264C222.249 197.264 221.514 197.741 221.195 198.557H221.096V197.364H219.963V205ZM241.477 199.074C241.109 197.99 240.284 197.264 238.773 197.264C237.162 197.264 235.969 198.179 235.969 199.472C235.969 200.526 236.595 201.232 237.997 201.56L239.27 201.858C240.04 202.037 240.403 202.405 240.403 202.932C240.403 203.588 239.707 204.125 238.613 204.125C237.654 204.125 237.052 203.712 236.844 202.892L235.73 203.17C236.003 204.468 237.072 205.159 238.633 205.159C240.408 205.159 241.616 204.19 241.616 202.872C241.616 201.808 240.95 201.137 239.588 200.804L238.454 200.526C237.55 200.302 237.142 199.999 237.142 199.412C237.142 198.756 237.838 198.278 238.773 198.278C239.797 198.278 240.219 198.845 240.423 199.372L241.477 199.074ZM245.63 205.179C246.962 205.179 247.658 204.463 247.897 203.966H247.956V205H249.13V199.969C249.13 197.543 247.28 197.264 246.306 197.264C245.152 197.264 243.84 197.662 243.243 199.054L244.357 199.452C244.615 198.895 245.227 198.298 246.346 198.298C247.424 198.298 247.956 198.87 247.956 199.849V199.889C247.956 200.456 247.38 200.406 245.988 200.585C244.571 200.769 243.025 201.082 243.025 202.832C243.025 204.324 244.178 205.179 245.63 205.179ZM245.809 204.125C244.874 204.125 244.198 203.707 244.198 202.892C244.198 201.997 245.013 201.719 245.928 201.599C246.425 201.54 247.757 201.401 247.956 201.162V202.236C247.956 203.19 247.201 204.125 245.809 204.125ZM252.444 200.406C252.444 199.074 253.27 198.318 254.393 198.318C255.482 198.318 256.143 199.029 256.143 200.227V205H257.317V200.148C257.317 198.199 256.278 197.264 254.731 197.264C253.578 197.264 252.862 197.781 252.504 198.557H252.405V197.364H251.271V205H252.444V200.406ZM262.344 205.159C263.816 205.159 264.313 204.244 264.571 203.827H264.711V205H265.844V194.818H264.671V198.577H264.571C264.313 198.179 263.855 197.264 262.364 197.264C260.435 197.264 259.103 198.795 259.103 201.202C259.103 203.628 260.435 205.159 262.344 205.159ZM262.503 204.105C261.032 204.105 260.276 202.812 260.276 201.182C260.276 199.571 261.012 198.318 262.503 198.318C263.935 198.318 264.691 199.472 264.691 201.182C264.691 202.912 263.915 204.105 262.503 204.105ZM272.968 201.878C272.968 203.31 271.875 203.966 271 203.966C270.025 203.966 269.329 203.25 269.329 202.136V197.364H268.156V202.216C268.156 204.165 269.19 205.099 270.622 205.099C271.775 205.099 272.531 204.483 272.889 203.707H272.968V205H274.142V197.364H272.968V201.878ZM276.291 205H277.464V197.364H276.291V205ZM276.35 196.33H277.384L278.936 194.023H277.563L276.35 196.33ZM282.715 205.159C284.406 205.159 285.519 204.125 285.718 202.773H284.545C284.326 203.608 283.63 204.105 282.715 204.105C281.323 204.105 280.428 202.952 280.428 201.182C280.428 199.452 281.343 198.318 282.715 198.318C283.749 198.318 284.366 198.955 284.545 199.651H285.718C285.519 198.219 284.306 197.264 282.695 197.264C280.627 197.264 279.255 198.895 279.255 201.222C279.255 203.509 280.567 205.159 282.715 205.159ZM288.607 200.406C288.607 199.074 289.457 198.318 290.615 198.318C291.719 198.318 292.385 199.014 292.385 200.227V205H293.558V200.148C293.558 198.184 292.514 197.264 290.953 197.264C289.75 197.264 289.064 197.766 288.706 198.557H288.607V194.818H287.433V205H288.607V200.406ZM298.906 205.159C300.458 205.159 301.591 204.384 301.949 203.23L300.816 202.912C300.517 203.707 299.826 204.105 298.906 204.105C297.529 204.105 296.58 203.215 296.525 201.58H302.068V201.082C302.068 198.239 300.378 197.264 298.787 197.264C296.719 197.264 295.347 198.895 295.347 201.241C295.347 203.588 296.699 205.159 298.906 205.159ZM296.525 200.565C296.605 199.377 297.445 198.318 298.787 198.318C300.06 198.318 300.875 199.273 300.875 200.565H296.525ZM305.603 203.608H304.33L304.271 204.165C304.127 205.512 303.843 206.854 303.714 207.486H304.609C304.847 206.81 305.355 205.278 305.524 204.145L305.603 203.608ZM314.916 205.159C316.467 205.159 317.601 204.384 317.959 203.23L316.825 202.912C316.527 203.707 315.836 204.105 314.916 204.105C313.539 204.105 312.589 203.215 312.535 201.58H318.078V201.082C318.078 198.239 316.388 197.264 314.797 197.264C312.729 197.264 311.357 198.895 311.357 201.241C311.357 203.588 312.709 205.159 314.916 205.159ZM312.535 200.565C312.614 199.377 313.455 198.318 314.797 198.318C316.07 198.318 316.885 199.273 316.885 200.565H312.535ZM314.2 196.33H315.234L316.786 194.023H315.413L314.2 196.33ZM323.8 207.864H324.974V203.827H325.073C325.332 204.244 325.829 205.159 327.3 205.159C329.21 205.159 330.542 203.628 330.542 201.202C330.542 198.795 329.21 197.264 327.281 197.264C325.789 197.264 325.332 198.179 325.073 198.577H324.934V197.364H323.8V207.864ZM324.954 201.182C324.954 199.472 325.71 198.318 327.141 198.318C328.633 198.318 329.369 199.571 329.369 201.182C329.369 202.812 328.613 204.105 327.141 204.105C325.729 204.105 324.954 202.912 324.954 201.182ZM332.332 205H333.505V200.168C333.505 199.134 334.32 198.378 335.434 198.378C335.747 198.378 336.07 198.438 336.15 198.457V197.264C336.016 197.254 335.707 197.244 335.533 197.244C334.619 197.244 333.823 197.761 333.545 198.517H333.465V197.364H332.332V205ZM340.51 205.159C342.061 205.159 343.195 204.384 343.553 203.23L342.419 202.912C342.121 203.707 341.43 204.105 340.51 204.105C339.133 204.105 338.183 203.215 338.129 201.58H343.672V201.082C343.672 198.239 341.982 197.264 340.391 197.264C338.322 197.264 336.95 198.895 336.95 201.241C336.95 203.588 338.303 205.159 340.51 205.159ZM338.129 200.565C338.208 199.377 339.048 198.318 340.391 198.318C341.663 198.318 342.479 199.273 342.479 200.565H338.129ZM348.559 205.159C350.249 205.159 351.363 204.125 351.562 202.773H350.388C350.17 203.608 349.474 204.105 348.559 204.105C347.167 204.105 346.272 202.952 346.272 201.182C346.272 199.452 347.187 198.318 348.559 198.318C349.593 198.318 350.21 198.955 350.388 199.651H351.562C351.363 198.219 350.15 197.264 348.539 197.264C346.471 197.264 345.099 198.895 345.099 201.222C345.099 203.509 346.411 205.159 348.559 205.159ZM353.277 205H354.45V197.364H353.277V205ZM353.874 196.091C354.331 196.091 354.709 195.733 354.709 195.295C354.709 194.858 354.331 194.5 353.874 194.5C353.416 194.5 353.038 194.858 353.038 195.295C353.038 195.733 353.416 196.091 353.874 196.091ZM362.008 199.074C361.64 197.99 360.815 197.264 359.304 197.264C357.693 197.264 356.5 198.179 356.5 199.472C356.5 200.526 357.126 201.232 358.528 201.56L359.801 201.858C360.572 202.037 360.934 202.405 360.934 202.932C360.934 203.588 360.238 204.125 359.145 204.125C358.185 204.125 357.584 203.712 357.375 202.892L356.261 203.17C356.535 204.468 357.604 205.159 359.165 205.159C360.939 205.159 362.148 204.19 362.148 202.872C362.148 201.808 361.481 201.137 360.119 200.804L358.986 200.526C358.081 200.302 357.673 199.999 357.673 199.412C357.673 198.756 358.369 198.278 359.304 198.278C360.328 198.278 360.751 198.845 360.954 199.372L362.008 199.074ZM367.016 205.159C369.084 205.159 370.476 203.588 370.476 201.222C370.476 198.835 369.084 197.264 367.016 197.264C364.948 197.264 363.556 198.835 363.556 201.222C363.556 203.588 364.948 205.159 367.016 205.159ZM367.016 204.105C365.445 204.105 364.729 202.753 364.729 201.222C364.729 199.69 365.445 198.318 367.016 198.318C368.587 198.318 369.303 199.69 369.303 201.222C369.303 202.753 368.587 204.105 367.016 204.105ZM114.074 227H115.247V222.168C115.247 221.134 116.062 220.378 117.176 220.378C117.489 220.378 117.812 220.438 117.892 220.457V219.264C117.758 219.254 117.45 219.244 117.276 219.244C116.361 219.244 115.565 219.761 115.287 220.517H115.207V219.364H114.074V227ZM122.252 227.159C123.803 227.159 124.937 226.384 125.295 225.23L124.161 224.912C123.863 225.707 123.172 226.105 122.252 226.105C120.875 226.105 119.925 225.215 119.871 223.58H125.414V223.082C125.414 220.239 123.724 219.264 122.133 219.264C120.065 219.264 118.692 220.895 118.692 223.241C118.692 225.588 120.045 227.159 122.252 227.159ZM119.871 222.565C119.95 221.377 120.79 220.318 122.133 220.318C123.406 220.318 124.221 221.273 124.221 222.565H119.871ZM130.301 227.159C131.991 227.159 133.105 226.125 133.304 224.773H132.131C131.912 225.608 131.216 226.105 130.301 226.105C128.909 226.105 128.014 224.952 128.014 223.182C128.014 221.452 128.929 220.318 130.301 220.318C131.335 220.318 131.952 220.955 132.131 221.651H133.304C133.105 220.219 131.892 219.264 130.281 219.264C128.213 219.264 126.841 220.895 126.841 223.222C126.841 225.509 128.153 227.159 130.301 227.159ZM136.192 222.406C136.192 221.074 137.043 220.318 138.201 220.318C139.305 220.318 139.971 221.014 139.971 222.227V227H141.144V222.148C141.144 220.184 140.1 219.264 138.539 219.264C137.336 219.264 136.65 219.766 136.292 220.557H136.192V216.818H135.019V227H136.192V222.406ZM146.492 227.159C148.044 227.159 149.177 226.384 149.535 225.23L148.401 224.912C148.103 225.707 147.412 226.105 146.492 226.105C145.115 226.105 144.166 225.215 144.111 223.58H149.654V223.082C149.654 220.239 147.964 219.264 146.373 219.264C144.305 219.264 142.933 220.895 142.933 223.241C142.933 225.588 144.285 227.159 146.492 227.159ZM144.111 222.565C144.191 221.377 145.031 220.318 146.373 220.318C147.646 220.318 148.461 221.273 148.461 222.565H144.111ZM153.686 227.179C155.019 227.179 155.715 226.463 155.953 225.966H156.013V227H157.186V221.969C157.186 219.543 155.337 219.264 154.362 219.264C153.209 219.264 151.896 219.662 151.3 221.054L152.414 221.452C152.672 220.895 153.284 220.298 154.402 220.298C155.481 220.298 156.013 220.87 156.013 221.849V221.889C156.013 222.456 155.436 222.406 154.044 222.585C152.627 222.769 151.081 223.082 151.081 224.832C151.081 226.324 152.235 227.179 153.686 227.179ZM153.865 226.125C152.931 226.125 152.254 225.707 152.254 224.892C152.254 223.997 153.07 223.719 153.985 223.599C154.482 223.54 155.814 223.401 156.013 223.162V224.236C156.013 225.19 155.257 226.125 153.865 226.125ZM153.905 218.33H154.939L156.49 216.023H155.118L153.905 218.33ZM163.703 222.088H159.248V223.182H163.703V222.088ZM166.941 216.818H165.767V227H166.941V216.818ZM171.337 227.179C172.669 227.179 173.365 226.463 173.604 225.966H173.663V227H174.837V221.969C174.837 219.543 172.987 219.264 172.013 219.264C170.859 219.264 169.547 219.662 168.95 221.054L170.064 221.452C170.322 220.895 170.934 220.298 172.053 220.298C173.131 220.298 173.663 220.87 173.663 221.849V221.889C173.663 222.456 173.087 222.406 171.695 222.585C170.278 222.769 168.732 223.082 168.732 224.832C168.732 226.324 169.885 227.179 171.337 227.179ZM171.516 226.125C170.581 226.125 169.905 225.707 169.905 224.892C169.905 223.997 170.72 223.719 171.635 223.599C172.132 223.54 173.464 223.401 173.663 223.162V224.236C173.663 225.19 172.908 226.125 171.516 226.125ZM184.018 227.159C185.708 227.159 186.822 226.125 187.021 224.773H185.847C185.629 225.608 184.933 226.105 184.018 226.105C182.626 226.105 181.731 224.952 181.731 223.182C181.731 221.452 182.646 220.318 184.018 220.318C185.052 220.318 185.669 220.955 185.847 221.651H187.021C186.822 220.219 185.609 219.264 183.998 219.264C181.93 219.264 180.558 220.895 180.558 223.222C180.558 225.509 181.87 227.159 184.018 227.159ZM191.838 227.159C193.906 227.159 195.298 225.588 195.298 223.222C195.298 220.835 193.906 219.264 191.838 219.264C189.77 219.264 188.378 220.835 188.378 223.222C188.378 225.588 189.77 227.159 191.838 227.159ZM191.838 226.105C190.267 226.105 189.551 224.753 189.551 223.222C189.551 221.69 190.267 220.318 191.838 220.318C193.409 220.318 194.125 221.69 194.125 223.222C194.125 224.753 193.409 226.105 191.838 226.105ZM197.089 227H198.263V222.227C198.263 221.109 199.078 220.318 199.993 220.318C200.883 220.318 201.504 220.9 201.504 221.77V227H202.697V222.028C202.697 221.044 203.314 220.318 204.388 220.318C205.223 220.318 205.939 220.761 205.939 221.889V227H207.112V221.889C207.112 220.094 206.148 219.264 204.786 219.264C203.692 219.264 202.891 219.766 202.499 220.557H202.419C202.041 219.741 201.375 219.264 200.371 219.264C199.376 219.264 198.641 219.741 198.322 220.557H198.223V219.364H197.089V227ZM216.297 227.159C218.365 227.159 219.757 225.588 219.757 223.222C219.757 220.835 218.365 219.264 216.297 219.264C214.229 219.264 212.837 220.835 212.837 223.222C212.837 225.588 214.229 227.159 216.297 227.159ZM216.297 226.105C214.726 226.105 214.01 224.753 214.01 223.222C214.01 221.69 214.726 220.318 216.297 220.318C217.868 220.318 218.584 221.69 218.584 223.222C218.584 224.753 217.868 226.105 216.297 226.105ZM226.958 221.074C226.59 219.99 225.764 219.264 224.253 219.264C222.642 219.264 221.449 220.179 221.449 221.472C221.449 222.526 222.075 223.232 223.477 223.56L224.75 223.858C225.521 224.037 225.884 224.405 225.884 224.932C225.884 225.588 225.188 226.125 224.094 226.125C223.134 226.125 222.533 225.712 222.324 224.892L221.21 225.17C221.484 226.468 222.553 227.159 224.114 227.159C225.889 227.159 227.097 226.19 227.097 224.872C227.097 223.808 226.431 223.137 225.068 222.804L223.935 222.526C223.03 222.302 222.622 221.999 222.622 221.412C222.622 220.756 223.318 220.278 224.253 220.278C225.277 220.278 225.7 220.845 225.904 221.372L226.958 221.074ZM114.074 249H115.247V241.364H114.074V249ZM114.67 240.091C115.128 240.091 115.506 239.733 115.506 239.295C115.506 238.858 115.128 238.5 114.67 238.5C114.213 238.5 113.835 238.858 113.835 239.295C113.835 239.733 114.213 240.091 114.67 240.091ZM118.569 244.406C118.569 243.074 119.395 242.318 120.518 242.318C121.607 242.318 122.268 243.029 122.268 244.227V249H123.442V244.148C123.442 242.199 122.403 241.264 120.856 241.264C119.703 241.264 118.987 241.781 118.629 242.557H118.53V241.364H117.396V249H118.569V244.406ZM128.668 252.023C130.498 252.023 131.969 251.188 131.969 249.219V241.364H130.836V242.577H130.716C130.458 242.179 129.98 241.264 128.489 241.264C126.56 241.264 125.228 242.795 125.228 245.142C125.228 247.528 126.62 248.881 128.469 248.881C129.961 248.881 130.438 248.006 130.696 247.588H130.796V249.139C130.796 250.412 129.901 250.989 128.668 250.989C127.281 250.989 126.794 250.258 126.48 249.835L125.546 250.491C126.023 251.292 126.963 252.023 128.668 252.023ZM128.628 247.827C127.157 247.827 126.401 246.713 126.401 245.122C126.401 243.571 127.137 242.318 128.628 242.318C130.06 242.318 130.816 243.472 130.816 245.122C130.816 246.812 130.04 247.827 128.628 247.827ZM134.117 249H135.29V244.168C135.29 243.134 136.105 242.378 137.219 242.378C137.532 242.378 137.855 242.438 137.935 242.457V241.264C137.801 241.254 137.493 241.244 137.319 241.244C136.404 241.244 135.608 241.761 135.33 242.517H135.25V241.364H134.117V249ZM142.295 249.159C143.846 249.159 144.98 248.384 145.338 247.23L144.204 246.912C143.906 247.707 143.215 248.105 142.295 248.105C140.918 248.105 139.968 247.215 139.914 245.58H145.457V245.082C145.457 242.239 143.767 241.264 142.176 241.264C140.108 241.264 138.735 242.895 138.735 245.241C138.735 247.588 140.088 249.159 142.295 249.159ZM139.914 244.565C139.993 243.377 140.833 242.318 142.176 242.318C143.449 242.318 144.264 243.273 144.264 244.565H139.914ZM150.125 249.159C151.597 249.159 152.094 248.244 152.353 247.827H152.492V249H153.625V238.818H152.452V242.577H152.353C152.094 242.179 151.637 241.264 150.145 241.264C148.216 241.264 146.884 242.795 146.884 245.202C146.884 247.628 148.216 249.159 150.125 249.159ZM150.284 248.105C148.813 248.105 148.057 246.812 148.057 245.182C148.057 243.571 148.793 242.318 150.284 242.318C151.716 242.318 152.472 243.472 152.472 245.182C152.472 246.912 151.696 248.105 150.284 248.105ZM155.937 249H157.11V241.364H155.937V249ZM156.534 240.091C156.991 240.091 157.369 239.733 157.369 239.295C157.369 238.858 156.991 238.5 156.534 238.5C156.076 238.5 155.699 238.858 155.699 239.295C155.699 239.733 156.076 240.091 156.534 240.091ZM162.461 249.159C164.012 249.159 165.146 248.384 165.504 247.23L164.37 246.912C164.072 247.707 163.381 248.105 162.461 248.105C161.084 248.105 160.134 247.215 160.08 245.58H165.623V245.082C165.623 242.239 163.933 241.264 162.342 241.264C160.274 241.264 158.901 242.895 158.901 245.241C158.901 247.588 160.254 249.159 162.461 249.159ZM160.08 244.565C160.159 243.377 160.999 242.318 162.342 242.318C163.615 242.318 164.43 243.273 164.43 244.565H160.08ZM168.581 244.406C168.581 243.074 169.406 242.318 170.53 242.318C171.619 242.318 172.28 243.029 172.28 244.227V249H173.453V244.148C173.453 242.199 172.414 241.264 170.868 241.264C169.715 241.264 168.999 241.781 168.641 242.557H168.541V241.364H167.408V249H168.581V244.406ZM178.918 241.364H177.288V239.534H176.114V241.364H174.961V242.358H176.114V247.131C176.114 248.463 177.188 249.099 178.183 249.099C178.62 249.099 178.898 249.02 179.058 248.96L178.819 247.906C178.719 247.926 178.56 247.966 178.302 247.966C177.785 247.966 177.288 247.807 177.288 246.812V242.358H178.918V241.364ZM183.803 249.159C185.354 249.159 186.488 248.384 186.846 247.23L185.712 246.912C185.414 247.707 184.723 248.105 183.803 248.105C182.426 248.105 181.476 247.215 181.422 245.58H186.965V245.082C186.965 242.239 185.275 241.264 183.684 241.264C181.615 241.264 180.243 242.895 180.243 245.241C180.243 247.588 181.596 249.159 183.803 249.159ZM181.422 244.565C181.501 243.377 182.341 242.318 183.684 242.318C184.956 242.318 185.772 243.273 185.772 244.565H181.422ZM194.159 243.074C193.791 241.99 192.966 241.264 191.454 241.264C189.843 241.264 188.65 242.179 188.65 243.472C188.65 244.526 189.277 245.232 190.679 245.56L191.951 245.858C192.722 246.037 193.085 246.405 193.085 246.932C193.085 247.588 192.389 248.125 191.295 248.125C190.336 248.125 189.734 247.712 189.525 246.892L188.412 247.17C188.685 248.468 189.754 249.159 191.315 249.159C193.09 249.159 194.298 248.19 194.298 246.872C194.298 245.808 193.632 245.137 192.27 244.804L191.136 244.526C190.231 244.302 189.824 243.999 189.824 243.412C189.824 242.756 190.52 242.278 191.454 242.278C192.478 242.278 192.901 242.845 193.105 243.372L194.159 243.074ZM196.919 249.08C197.411 249.08 197.814 248.677 197.814 248.185C197.814 247.692 197.411 247.29 196.919 247.29C196.427 247.29 196.024 247.692 196.024 248.185C196.024 248.677 196.427 249.08 196.919 249.08Z" fill="#828282"/>
  <path d="M232.726 227H234.212V222.292C234.212 221.263 234.933 220.547 235.778 220.547C236.604 220.547 237.175 221.094 237.175 221.924V227H238.657V222.133C238.657 221.213 239.219 220.547 240.188 220.547C240.974 220.547 241.62 220.984 241.62 222.018V227H243.107V221.879C243.107 220.134 242.132 219.264 240.75 219.264C239.651 219.264 238.826 219.791 238.458 220.607H238.379C238.045 219.771 237.344 219.264 236.325 219.264C235.316 219.264 234.565 219.766 234.247 220.607H234.153V219.364H232.726V227ZM248.39 227.154C250.056 227.154 251.234 226.334 251.572 225.091L250.165 224.837C249.896 225.558 249.25 225.926 248.405 225.926C247.132 225.926 246.277 225.101 246.237 223.629H251.666V223.102C251.666 220.343 250.016 219.264 248.286 219.264C246.158 219.264 244.756 220.885 244.756 223.232C244.756 225.603 246.138 227.154 248.39 227.154ZM246.242 222.516C246.302 221.432 247.088 220.492 248.296 220.492C249.449 220.492 250.205 221.347 250.21 222.516H246.242ZM254.802 216.818H253.316V227H254.802V216.818ZM258.289 222.466C258.289 221.248 259.059 220.552 260.118 220.552C261.142 220.552 261.754 221.203 261.754 222.322V227H263.24V222.143C263.24 220.239 262.196 219.264 260.625 219.264C259.437 219.264 258.721 219.781 258.363 220.607H258.269V216.818H256.802V227H258.289V222.466ZM268.441 227.154C270.593 227.154 272 225.578 272 223.217C272 220.84 270.593 219.264 268.441 219.264C266.288 219.264 264.881 220.84 264.881 223.217C264.881 225.578 266.288 227.154 268.441 227.154ZM268.445 225.906C267.039 225.906 266.382 224.678 266.382 223.212C266.382 221.75 267.039 220.507 268.445 220.507C269.843 220.507 270.499 221.75 270.499 223.212C270.499 224.678 269.843 225.906 268.445 225.906ZM273.659 227H275.146V222.337C275.146 221.337 275.917 220.616 276.971 220.616C277.279 220.616 277.627 220.671 277.746 220.706V219.284C277.597 219.264 277.304 219.249 277.115 219.249C276.22 219.249 275.454 219.756 275.176 220.577H275.096V219.364H273.659V227ZM282.05 227.154C283.716 227.154 284.894 226.334 285.232 225.091L283.825 224.837C283.557 225.558 282.91 225.926 282.065 225.926C280.792 225.926 279.937 225.101 279.898 223.629H285.327V223.102C285.327 220.343 283.676 219.264 281.946 219.264C279.818 219.264 278.416 220.885 278.416 223.232C278.416 225.603 279.798 227.154 282.05 227.154ZM279.903 222.516C279.962 221.432 280.748 220.492 281.956 220.492C283.109 220.492 283.865 221.347 283.87 222.516H279.903ZM292.698 221.228C292.39 220.04 291.46 219.264 289.81 219.264C288.085 219.264 286.862 220.174 286.862 221.526C286.862 222.61 287.518 223.331 288.95 223.649L290.242 223.933C290.978 224.097 291.321 224.425 291.321 224.902C291.321 225.494 290.69 225.956 289.715 225.956C288.825 225.956 288.254 225.573 288.075 224.822L286.638 225.041C286.886 226.393 288.01 227.154 289.725 227.154C291.57 227.154 292.847 226.175 292.847 224.793C292.847 223.714 292.161 223.048 290.759 222.724L289.546 222.446C288.706 222.247 288.343 221.964 288.348 221.447C288.343 220.86 288.979 220.442 289.825 220.442C290.749 220.442 291.177 220.955 291.351 221.467L292.698 221.228Z" fill="#333333"/>
  <mask id="mask0_9_376" style="mask-type:alpha" maskUnits="userSpaceOnUse" x="20" y="111" width="230" height="35">
    <path d="M20 137.988H31.5305C37.5922 137.988 40.8208 134.825 40.8208 130.529C40.8208 126.537 37.9612 124.125 34.8908 123.98V123.716C37.6977 123.084 39.7666 121.094 39.7666 117.918C39.7666 113.873 36.762 111 30.8057 111H20V137.988ZM25.7059 133.323V126.154H30.4895C33.2304 126.154 34.9303 127.736 34.9303 129.963C34.9303 131.992 33.5467 133.323 30.3577 133.323H25.7059ZM25.7059 122.293V115.612H30.0414C32.5715 115.612 34.0079 116.917 34.0079 118.867C34.0079 121.002 32.2684 122.293 29.936 122.293H25.7059Z" fill="#333333"/>
    <path d="M57.4082 129.37C57.4214 132.084 55.5633 133.508 53.5472 133.508C51.4255 133.508 50.0551 132.018 50.0419 129.633V117.747H44.4282V130.635C44.4414 135.366 47.2087 138.252 51.2806 138.252C54.3246 138.252 56.5121 136.683 57.4214 134.311H57.6322V137.988H63.0219V117.747H57.4082V129.37Z" fill="#333333"/>
    <path d="M67.5122 137.988H73.1259V126.537C73.1259 124.046 74.9445 122.333 77.4219 122.333C78.1994 122.333 79.2668 122.465 79.7939 122.636V117.655C79.2931 117.536 78.5947 117.457 78.028 117.457C75.7615 117.457 73.9034 118.775 73.1655 121.279H72.9546V117.747H67.5122V137.988Z" fill="#333333"/>
    <path d="M90.873 146C96.658 146 100.769 143.364 100.769 138.186V117.747H95.1953V121.147H94.9845C94.2333 119.5 92.5861 117.483 89.1995 117.483C84.7586 117.483 81.0029 120.936 81.0029 127.828C81.0029 134.562 84.6531 137.698 89.2126 137.698C92.4412 137.698 94.2465 136.077 94.9845 134.404H95.2217V138.107C95.2217 140.887 93.4427 141.968 91.0048 141.968C88.5274 141.968 87.2755 140.887 86.8143 139.662L81.6223 140.36C82.2943 143.549 85.4175 146 90.873 146ZM90.9916 133.481C88.2375 133.481 86.7352 131.294 86.7352 127.802C86.7352 124.362 88.2111 121.951 90.9916 121.951C93.7194 121.951 95.248 124.257 95.248 127.802C95.248 131.373 93.6931 133.481 90.9916 133.481Z" fill="#333333"/>
    <path d="M118.217 129.37C118.23 132.084 116.372 133.508 114.356 133.508C112.234 133.508 110.864 132.018 110.85 129.633V117.747H105.237V130.635C105.25 135.366 108.017 138.252 112.089 138.252C115.133 138.252 117.321 136.683 118.23 134.311H118.441V137.988H123.83V117.747H118.217V129.37Z" fill="#333333"/>
    <path d="M137.545 138.383C142.553 138.383 145.926 135.945 146.717 132.19L141.525 131.847C140.958 133.389 139.509 134.193 137.637 134.193C134.831 134.193 133.052 132.335 133.052 129.317V129.304H146.835V127.762C146.835 120.883 142.671 117.483 137.321 117.483C131.365 117.483 127.504 121.713 127.504 127.96C127.504 134.377 131.312 138.383 137.545 138.383ZM133.052 125.825C133.17 123.519 134.923 121.674 137.413 121.674C139.851 121.674 141.538 123.413 141.551 125.825H133.052Z" fill="#333333"/>
    <path d="M150.499 137.988H156.113V126.537C156.113 124.046 157.931 122.333 160.409 122.333C161.186 122.333 162.253 122.465 162.78 122.636V117.655C162.28 117.536 161.581 117.457 161.015 117.457C158.748 117.457 156.89 118.775 156.152 121.279H155.941V117.747H150.499V137.988Z" fill="#333333"/>
    <path d="M173.532 137.988H177.184V133.08L178.981 130.887L183.712 137.988H188.081L181.595 128.449L188.005 120.716H183.628L177.412 128.331H177.184V120.716H173.532V137.988Z" fill="#333333"/>
    <path d="M194.792 138.241C197.997 138.241 200.156 136.681 200.662 134.277L197.339 134.058C196.976 135.045 196.048 135.559 194.851 135.559C193.054 135.559 191.916 134.37 191.916 132.439V132.43H200.738V131.443C200.738 127.041 198.073 124.865 194.648 124.865C190.836 124.865 188.365 127.572 188.365 131.57C188.365 135.677 190.803 138.241 194.792 138.241ZM191.916 130.204C191.992 128.728 193.113 127.547 194.707 127.547C196.268 127.547 197.347 128.66 197.356 130.204H191.916Z" fill="#333333"/>
    <path d="M206.675 130.499C206.683 128.829 207.679 127.851 209.129 127.851C210.571 127.851 211.44 128.795 211.432 130.381V137.988H215.024V129.74C215.024 126.72 213.253 124.865 210.554 124.865C208.632 124.865 207.24 125.81 206.658 127.319H206.506V125.034H203.082V137.988H206.675V130.499Z" fill="#333333"/>
    <path d="M217.788 137.988H228.676V135.12H222.503V135.028L228.457 127.37V125.034H218.008V127.901H224.131V127.994L217.788 135.846V137.988Z" fill="#333333"/>
    <path d="M231.424 137.988H235.016V125.034H231.424V137.988ZM233.229 123.364C234.3 123.364 235.177 122.546 235.177 121.542C235.177 120.547 234.3 119.729 233.229 119.729C232.166 119.729 231.289 120.547 231.289 121.542C231.289 122.546 232.166 123.364 233.229 123.364Z" fill="#333333"/>
    <path d="M243.798 138.241C247.003 138.241 249.162 136.681 249.668 134.277L246.345 134.058C245.982 135.045 245.055 135.559 243.857 135.559C242.061 135.559 240.922 134.37 240.922 132.439V132.43H249.744V131.443C249.744 127.041 247.079 124.865 243.655 124.865C239.843 124.865 237.372 127.572 237.372 131.57C237.372 135.677 239.809 138.241 243.798 138.241ZM240.922 130.204C240.998 128.728 242.12 127.547 243.714 127.547C245.274 127.547 246.354 128.66 246.362 130.204H240.922Z" fill="#333333"/>
  </mask>
  <g mask="url(#mask0_9_376)">
    <rect x="11.0941" y="97.641" width="243.431" height="56.4048" fill="url(#paint0_linear_9_376)"/>
  </g>
  <rect x="34" y="193" width="60" height="60" rx="5" fill="#27AE60" fill-opacity="0.1"/>
  <path d="M58 211L55 215V229C55 229.53 55.2107 230.039 55.5858 230.414C55.9609 230.789 56.4696 231 57 231H71C71.5304 231 72.0391 230.789 72.4142 230.414C72.7893 230.039 73 229.53 73 229V215L70 211H58Z" stroke="#219653" stroke-width="2" stroke-linecap="round" stroke-linejoin="round"/>
  <path d="M55 215H73" stroke="#219653" stroke-width="2" stroke-linecap="round" stroke-linejoin="round"/>
  <path d="M68 219C68 220.061 67.5786 221.078 66.8284 221.828C66.0783 222.579 65.0609 223 64 223C62.9391 223 61.9217 222.579 61.1716 221.828C60.4214 221.078 60 220.061 60 219" stroke="#219653" stroke-width="2" stroke-linecap="round" stroke-linejoin="round"/>
  <defs>
    <filter id="filter0_d_9_376" x="0" y="160" width="417" height="135" filterUnits="userSpaceOnUse" color-interpolation-filters="sRGB">
      <feFlood flood-opacity="0" result="BackgroundImageFix"/>
      <feColorMatrix in="SourceAlpha" type="matrix" values="0 0 0 0 0 0 0 0 0 0 0 0 0 0 0 0 0 0 127 0" result="hardAlpha"/>
      <feMorphology radius="20" operator="erode" in="SourceAlpha" result="effect1_dropShadow_9_376"/>
      <feOffset dy="4"/>
      <feGaussianBlur stdDeviation="20"/>
      <feComposite in2="hardAlpha" operator="out"/>
      <feColorMatrix type="matrix" values="0 0 0 0 0 0 0 0 0 0 0 0 0 0 0 0 0 0 0.25 0"/>
      <feBlend mode="normal" in2="BackgroundImageFix" result="effect1_dropShadow_9_376"/>
      <feBlend mode="normal" in="SourceGraphic" in2="effect1_dropShadow_9_376" result="shape"/>
    </filter>
    <linearGradient id="paint0_linear_9_376" x1="163.59" y1="154.396" x2="168.695" y2="154.396" gradientUnits="userSpaceOnUse">
      <stop stop-color="#333333"/>
      <stop offset="1" stop-color="#EB5757"/>
    </linearGradient>
  </defs>
</svg>